# xmcd
#
# Track frame offsets:
#	150
#	14450
#	29067
#	43230
#	59042
#	72080
#	85837
#	109000
#	128917
#	142925
#	162992
#	180825
#
# Disc length: 2549 seconds
#
# Revision: 0
# Processed by: cddbd v1.5.2PL0 Copyright (c) Steve Scherf et al.
# Submitted via: EasyCDDAExtractor 10.2.0.1
#
DISCID=a409f30c
DTITLE=Various Artist - Sunday In The Mountains Vol.1
DYEAR=1998
DGENRE=Gospel
TTITLE0=I Heard Of A Stone - Kevin Spencer Family
TTITLE1=Victory On The Other Side - Perry Sisters
TTITLE2=Chiseled In Stone - Cooke Brothers
TTITLE3=Let's Meet By The River - Spencers
TTITLE4=Just A Rose Will Do - Bobby All
TTITLE5=So Much To Thank Him For - Melody Trio
TTITLE6=I Am A Christian - Greenes
TTITLE7=I'll Be Back - Wade Spencer
TTITLE8=I Will Be A Millionaire - Perry Sisters
TTITLE9=Jerusalem - Kevin Spencer Family
TTITLE10=I Want us To Be In Heaven Together In Heaven - Principles
TTITLE11=I Saw The Light - Hank Williams
EXTD=
EXTT0=
EXTT1=
EXTT2=
EXTT3=
EXTT4=
EXTT5=
EXTT6=
EXTT7=
EXTT8=
EXTT9=
EXTT10=
EXTT11=
PLAYORDER=
